<?xml version="1.0" standalone="no"?>
<!DOCTYPE svg PUBLIC "-//W3C//DTD SVG 20010904//EN"
 "http://www.w3.org/TR/2001/REC-SVG-20010904/DTD/svg10.dtd">
<svg version="1.0" xmlns="http://www.w3.org/2000/svg"
 width="1000.000000pt" height="1000.000000pt" viewBox="0 0 1000.000000 1000.000000"
 preserveAspectRatio="xMidYMid meet">

<g transform="translate(0.000000,1000.000000) scale(0.100000,-0.100000)"
fill="#000000" stroke="none">
<path d="M0 5000 l0 -5000 5000 0 5000 0 0 5000 0 5000 -5000 0 -5000 0 0
-5000z m1084 1150 c88 -13 201 -49 262 -85 146 -86 233 -260 234 -465 0 -235
-111 -409 -308 -480 l-62 -23 75 -32 c160 -70 253 -175 307 -346 19 -63 23
-95 23 -214 -1 -160 -15 -228 -70 -341 -82 -168 -244 -285 -450 -325 -50 -10
-161 -14 -397 -14 l-328 0 0 1160 c0 638 0 1163 0 1168 0 11 629 8 714 -3z
m1619 -317 c96 -459 287 -1374 358 -1712 32 -156 57 -286 55 -289 -3 -2 -101
-5 -218 -6 l-213 -1 -27 180 c-14 99 -27 183 -27 188 -1 4 -108 7 -239 7
l-239 0 -11 -77 c-6 -43 -16 -118 -22 -168 -17 -143 7 -130 -236 -129 l-209 1
3 24 c2 13 19 94 37 179 19 85 66 304 104 485 71 336 169 794 216 1010 14 66
30 140 35 165 10 50 87 413 95 448 l5 22 233 0 232 0 68 -327z m1037 -128 l0
-455 165 0 165 0 0 455 0 455 215 0 215 0 0 -1163 c0 -640 -2 -1166 -4 -1168
-2 -2 -99 -3 -215 -1 l-211 3 0 522 0 522 -162 0 -163 0 -5 -523 -5 -523 -210
0 -210 0 -3 1166 -2 1165 215 0 215 0 0 -455z m1871 370 c17 -82 36 -172 185
-885 47 -223 98 -470 115 -550 16 -80 38 -185 49 -235 68 -315 119 -569 116
-573 -7 -6 -427 -9 -431 -3 -2 4 -13 74 -24 156 -12 83 -24 165 -27 183 l-5
32 -239 0 -239 0 -5 -42 c-18 -133 -47 -322 -49 -324 -2 -2 -97 -5 -213 -6
l-209 -3 3 25 c1 14 68 331 148 705 79 374 188 883 240 1130 53 248 97 456
100 463 3 10 55 12 236 10 l233 -3 16 -80z m1250 -600 l188 -680 0 683 1 682
195 0 195 0 0 -1164 c0 -1101 -1 -1165 -17 -1169 -28 -7 -391 -3 -398 5 -3 3
-26 71 -49 150 -23 78 -110 370 -192 647 l-149 503 -5 -653 -5 -654 -180 0
c-99 -1 -186 1 -192 3 -10 3 -13 246 -13 1168 l0 1164 217 -2 216 -3 188 -680z
m1584 656 c137 -37 218 -82 305 -169 63 -62 86 -95 123 -172 86 -178 127 -415
127 -740 0 -662 -148 -1029 -468 -1164 -122 -52 -191 -60 -502 -60 -157 -1
-286 2 -287 7 -2 4 -3 529 -3 1168 l0 1161 313 -4 c281 -4 320 -7 392 -27z
m1203 -1137 l-3 -1166 -210 1 c-115 0 -212 1 -215 1 -3 0 -4 524 -2 1165 l2
1165 215 0 215 0 -2 -1166z"/>
<path d="M792 5812 c-9 -6 -12 -71 -10 -288 l3 -279 80 1 c190 1 295 117 283
308 -10 154 -108 245 -280 261 -35 3 -69 2 -76 -3z"/>
<path d="M785 4879 c-3 -8 -4 -165 -3 -349 l3 -335 76 1 c107 2 171 25 235 88
56 54 78 107 90 212 8 65 -11 176 -39 233 -28 56 -95 115 -155 136 -68 23
-200 32 -207 14z"/>
<path d="M2391 5795 c-1 -5 -8 -53 -16 -105 -8 -52 -33 -214 -55 -360 -21
-146 -42 -278 -45 -295 -14 -82 -65 -435 -65 -454 0 -21 3 -21 186 -21 l186 0
-6 33 c-3 17 -24 154 -46 302 -123 814 -138 911 -139 900z"/>
<path d="M5347 5770 c-3 -8 -27 -157 -52 -330 -26 -173 -60 -400 -76 -505 -16
-104 -34 -224 -40 -265 -5 -41 -12 -83 -15 -92 -5 -17 8 -18 186 -18 l191 0
-5 33 c-19 113 -43 273 -101 657 -81 540 -81 538 -88 520z"/>
<path d="M8170 4995 l0 -808 53 7 c149 20 239 110 286 288 36 136 46 243 45
518 0 343 -23 511 -88 638 -47 91 -134 148 -242 159 l-54 6 0 -808z"/>
</g>
</svg>
